<svg xmlns="http://www.w3.org/2000/svg" viewBox="0 0 512.9 245.7" width="512" class="w-100" style="padding-right:0.25rem;margin-bottom:-0.375rem"><style>.station-graphic-st4{fill:#277bd1}.station-graphic-st5{fill:#fff}.station-graphic-st16{fill:#0281a8}.station-graphic-st25{fill:#16335f}</style><path d="M30.5 216.2c-.4-.3-.4-.7 0-.9l5.1-3c.4-.3 1.2-.3 1.6 0 .4.3.4.7 0 .9l-5.1 3c-.4.2-1.2.2-1.6 0zm10.3-6c-.4-.3-.4-.7 0-.9l5.1-3c.4-.3 1.2-.3 1.6 0 .4.3.4.7 0 .9l-5.1 3c-.5.3-1.2.3-1.6 0zm10.3-5.9c-.4-.3-.4-.7 0-.9l2.5-1.4c.4-.3 1.2-.3 1.6 0l2.5 1.4c.4.3.4.7 0 .9-.4.3-1.2.3-1.6 0l-1.7-1-1.7 1c-.5.3-1.2.3-1.6 0zm69.3 37.1-4.6-2.7c-.4-.3-.4-.7 0-.9.4-.3 1.2-.3 1.6 0l4.6 2.7c.4.3.4.7 0 .9-.5.3-1.2.3-1.6 0zm-9.2-5.3-4.6-2.7c-.4-.3-.4-.7 0-.9.4-.3 1.2-.3 1.6 0l4.6 2.7c.4.3.4.7 0 .9-.5.3-1.2.3-1.6 0zm-9.2-5.3-4.6-2.7c-.4-.3-.4-.7 0-.9.4-.3 1.2-.3 1.6 0l4.6 2.7c.4.3.4.7 0 .9-.5.3-1.2.3-1.6 0zm-9.2-5.3-4.6-2.7c-.4-.3-.4-.7 0-.9.4-.3 1.2-.3 1.6 0l4.6 2.7c.4.3.4.7 0 .9-.5.3-1.2.3-1.6 0zm-9.2-5.3-4.6-2.7c-.4-.3-.4-.7 0-.9.4-.3 1.2-.3 1.6 0l4.6 2.7c.4.3.4.7 0 .9s-1.2.3-1.6 0zm-9.2-5.3-4.6-2.7c-.4-.3-.4-.7 0-.9.4-.3 1.2-.3 1.6 0L76 214c.4.3.4.7 0 .9-.4.3-1.2.3-1.6 0zm-9.2-5.3-4.6-2.7c-.4-.3-.4-.7 0-.9.4-.3 1.2-.3 1.6 0l4.6 2.7c.4.3.4.7 0 .9-.4.3-1.2.3-1.6 0zm62.2 35.9-2.5-1.4c-.4-.3-.4-.7 0-.9.4-.3 1.2-.3 1.6 0l1.7 1 1.7-1c.4-.3 1.2-.3 1.6 0 .4.3.4.7 0 .9l-2.5 1.4c-.4.3-1.1.3-1.6 0zm7.5-4.3c-.4-.3-.4-.7 0-.9l5.1-2.9c.4-.3 1.2-.3 1.6 0 .4.3.4.7 0 .9l-5.1 2.9c-.4.2-1.1.2-1.6 0zm10.2-5.9c-.4-.3-.4-.7 0-.9l5.1-2.9c.4-.3 1.2-.3 1.6 0 .4.3.4.7 0 .9l-5.1 2.9c-.5.3-1.2.3-1.6 0zm10.1-5.8c-.4-.3-.4-.7 0-.9l5.1-2.9c.4-.3 1.2-.3 1.6 0 .4.3.4.7 0 .9l-5.1 2.9c-.5.3-1.2.3-1.6 0zm10.1-5.8c-.4-.3-.4-.7 0-.9l5.1-2.9c.4-.3 1.2-.3 1.6 0 .4.3.4.7 0 .9l-5.1 2.9c-.4.2-1.2.2-1.6 0zm10.1-5.9c-.4-.3-.4-.7 0-.9l5.1-2.9c.4-.3 1.2-.3 1.6 0 .4.3.4.7 0 .9l-5.1 2.9c-.4.3-1.2.3-1.6 0zm10.1-5.8c-.4-.3-.4-.7 0-.9l5.1-2.9c.4-.3 1.2-.3 1.6 0 .4.3.4.7 0 .9l-5.1 2.9c-.4.2-1.1.2-1.6 0zm10.1-5.8c-.4-.3-.4-.7 0-.9l5.1-2.9c.4-.3 1.2-.3 1.6 0 .4.3.4.7 0 .9l-5.1 2.9c-.4.2-1.1.2-1.6 0zm10.2-5.9c-.4-.3-.4-.7 0-.9l5.1-2.9c.4-.3 1.2-.3 1.6 0 .4.3.4.7 0 .9l-5.1 2.9c-.5.3-1.2.3-1.6 0zm10.1-5.8c-.4-.3-.4-.7 0-.9l5.1-2.9c.4-.3 1.2-.3 1.6 0 .4.3.4.7 0 .9l-5.1 2.9c-.5.2-1.2.2-1.6 0z" style="fill:#a7c6ff"></path><path d="M54.3 208c4.8 0 8.8-2.3 8.8-5.1s-3.9-5-8.8-5c-4.8 0-8.8 2.3-8.8 5s4 5.1 8.8 5.1zm170.1-12.3c5.5 0 9.9-2.6 9.9-5.7 0-3.2-4.4-5.7-9.9-5.7s-9.9 2.6-9.9 5.7 4.4 5.7 9.9 5.7z" style="fill:#ffd100"></path><path d="M61 2.3 65 0c.5-.3 1.2-.3 2 .2l64.3 37c1.7 1 3.1 3.6 3.1 5.9l.3 163.1c0 1.2-.4 2.1-1 2.5l-4 2.3.6-3.2-63.1-36.2c-1.7-1-3.1-3.6-3.1-5.9L63.8 3 61 2.3z" style="fill:#154a99"></path><path d="m127.6 210.8-64.3-37c-1.7-1-3.1-3.6-3.1-5.9L59.9 4.8c0-2.3 1.4-3.3 3.1-2.3l64.3 37c1.7 1 3.1 3.6 3.1 5.9l.3 163.1c0 2.2-1.4 3.3-3.1 2.3z" style="fill:#1c5a99"></path><path d="m129.7 44.6.3 163.8c0 1.7-1 2.5-2.3 1.7L63 173c-1.3-.7-2.3-2.7-2.3-4.4L60.5 4.8c0-1.7 1-2.5 2.3-1.7l64.7 37.2c1.2.6 2.2 2.6 2.2 4.3z" class="station-graphic-st4"></path><path d="M54.3 205.5c2.4 0 4.3-1.1 4.3-2.5s-1.9-2.5-4.3-2.5-4.3 1.1-4.3 2.5c0 1.3 1.9 2.5 4.3 2.5zm170.1-12.7c2.7 0 4.9-1.3 4.9-2.8 0-1.6-2.2-2.8-4.9-2.8s-4.9 1.3-4.9 2.8c0 1.5 2.2 2.8 4.9 2.8zM128.9 43.6l.3 164.8c0 .8-.5 1.2-1.1.8l-65.2-37.5c-.6-.3-1.1-1.3-1.1-2.1L61.5 4.8c0-.8.5-1.1 1.1-.8l65.2 37.5c.6.3 1.1 1.3 1.1 2.1z" class="station-graphic-st5"></path><linearGradient id="station-graphic-lg-1" x1="55.009" x2="134.104" y1="470.957" y2="271.558" gradientTransform="matrix(1 0 0 -1 0 476)" gradientUnits="userSpaceOnUse"><stop offset=".002" style="stop-color:#9be7f1"></stop><stop offset=".261" style="stop-color:#6a9ff0"></stop><stop offset=".691" style="stop-color:#63d9ea"></stop><stop offset="1" style="stop-color:#fde896"></stop></linearGradient><path d="M129.1 208.4c0 .8-.5 1.2-1.1.8l-65.2-37.5c-.6-.3-1.1-1.3-1.1-2.1l-.1-78.2-.1-37.7v-49c0-.8.5-1.2 1.1-.8l65.2 37.5c.6.3 1.1 1.3 1.1 2.1l.1 80.3v37.3l.1 47.3z" style="fill:url(#station-graphic-lg-1)"></path><path d="M99.6 32c.8-.5.8-2 0-3.4s-2.1-2.2-2.9-1.7-.8 2 0 3.4 2.1 2.1 2.9 1.7z" style="fill:#3d9dff"></path><linearGradient id="station-graphic-lg-2" x1="98.764" x2="97.478" y1="446.623" y2="446.621" gradientTransform="matrix(1 0 0 -1 0 476)" gradientUnits="userSpaceOnUse"><stop offset="0" style="stop-color:#c0bfd0"></stop><stop offset=".049" style="stop-color:#a09fad"></stop><stop offset=".117" style="stop-color:#7a7a85"></stop><stop offset=".19" style="stop-color:#595961"></stop><stop offset=".269" style="stop-color:#3d3d43"></stop><stop offset=".356" style="stop-color:#27272a"></stop><stop offset=".453" style="stop-color:#151517"></stop><stop offset=".567" style="stop-color:#09090a"></stop><stop offset=".713" style="stop-color:#020202"></stop><stop offset="1" style="stop-color:#000"></stop></linearGradient><path d="M97.5 29c0-.4.3-.6.6-.4.3.2.6.7.6 1.1 0 .4-.3.6-.6.4-.3-.2-.6-.7-.6-1.1z" style="opacity:.34;fill:url(#station-graphic-lg-2);enable-background:new"></path><path d="M99 30.6c-.3.4-1 .1-1.5-.5-.5-.7-.6-1.5-.3-1.9.3-.4 1-.1 1.5.5s.6 1.5.3 1.9z" class="station-graphic-st4"></path><path d="M61.5 16.5v23L129 146.9v-23L61.5 16.5zm0 25.8v11.5L129 161.1v-11.5L61.5 42.3z" style="opacity:.15;fill:#fff;enable-background:new"></path><path d="M82.2 94.2c.4-.2.4-.9 0-1.5s-1-1-1.3-.8-.4.9 0 1.5c.3.7.9 1 1.3.8zm3.3 1.1c0 .6-.4.8-.9.5-.5-.3-.9-1-.9-1.6 0-.6.4-.8.9-.5.5.3.9 1.1.9 1.6zm2.7 2.4c.4-.2.4-.9 0-1.5s-1-1-1.3-.8c-.4.2-.4.9 0 1.5.3.7.9 1 1.3.8zm3.3 1.1c0 .6-.4.8-.9.5-.5-.3-.9-1-.9-1.6 0-.6.4-.8.9-.5.4.3.9 1 .9 1.6zm2.7 2.3c.4-.2.4-.9 0-1.5s-1-1-1.3-.8-.4.9 0 1.5c.3.7.9 1 1.3.8zm6.2 2.9c0 .6-.4.8-.9.5-.5-.3-.9-1-.9-1.6 0-.6.4-.8.9-.5.5.3.9 1 .9 1.6zm2.7 2.3c.4-.2.4-.9 0-1.5s-1-1-1.3-.8c-.4.2-.4.9 0 1.5.4.7 1 1 1.3.8zm3.3 1.1c0 .6-.4.8-.9.5s-.9-1-.9-1.6c0-.6.4-.8.9-.5s.9 1 .9 1.6zm2.7 2.4c.4-.2.4-.9 0-1.5s-1-1-1.3-.8c-.4.2-.4.9 0 1.5s1 1 1.3.8zm3.3 1.1c0 .6-.4.8-.9.5-.5-.3-.9-1-.9-1.6 0-.6.4-.8.9-.5.5.3.9 1 .9 1.6z" style="opacity:.55;fill:#fff;enable-background:new"></path><path d="m71.4 17.4-5.6-3.2c-.3-.2-.5-.6-.5-1s.2-.5.5-.4l5.6 3.2c.3.2.5.6.5 1s-.2.5-.5.4zm0 2-5.6-3.2c-.3-.2-.5-.6-.5-1s.2-.5.5-.4l5.6 3.2c.3.2.5.6.5 1s-.2.5-.5.4zm0 2-5.6-3.2c-.3-.2-.5-.6-.5-1s.2-.5.5-.4l5.6 3.2c.3.2.5.6.5 1s-.2.5-.5.4zm57.7 187c0 .8-.5 1.2-1.1.8l-65.2-37.5c-.6-.3-1.1-1.3-1.1-2.1l-.1-78.2 67.4 38.9v30.8l.1 47.3z" class="station-graphic-st5"></path><path d="m114.4 180.5-35.8-20.7c-2.5-1.4-4.5-5.2-4.5-8.5v-.2c0-3.3 2-4.8 4.5-3.4l35.8 20.7c2.5 1.4 4.5 5.2 4.5 8.5v.2c0 3.3-2 4.8-4.5 3.4z" style="fill:#2070e8"></path><path d="M82.6 125.8c-1.8-1.1-3.3-.2-3.3 1.9s3.3 9.2 3.3 9.2 3.3-3.2 3.3-5.4c0-2.1-1.5-4.7-3.3-5.7zm0 5.7c-1.1-.6-2-2.2-2-3.4 0-1.3.9-1.8 2-1.1 1.1.6 2 2.2 2 3.4 0 1.2-.9 1.7-2 1.1z" style="fill:#96caff"></path><path d="M97.2 102.9c.4-.2.4-.9 0-1.5s-1-1-1.3-.8c-.4.2-.4.9 0 1.5.3.6.9 1 1.3.8zm-13 54.5c0-.6.1-1 .2-1.4.1-.2.3-.4.5-.5.2-.1.4-.2.6-.1.3 0 .7.2 1.1.4.7.4 1.3 1 1.8 1.8.4.8.7 1.6.7 2.6 0 .9-.2 1.5-.7 1.8-.4.3-1 .2-1.8-.2s-1.3-1-1.8-1.8c-.4-.9-.6-1.7-.6-2.6zm1 .5c0 .7.1 1.2.4 1.7.3.5.6.8 1 1.1.4.2.7.3 1 .1.3-.2.4-.6.4-1.3 0-.7-.1-1.2-.4-1.7-.3-.5-.6-.8-1-1.1-.4-.2-.8-.3-1-.1-.3.3-.4.7-.4 1.3zm4.6 5.6v-5.8l2.1 1.2c.5.3.9.6 1.2.8.2.2.4.5.6.9.1.3.2.7.2 1 0 .4-.1.7-.3.9-.2.2-.6.1-1 0 .2.3.4.5.5.8.1.3.3.7.6 1.3l.6 1.5-1.2-.7-.7-1.7c-.3-.6-.4-1-.5-1.2-.1-.2-.2-.3-.3-.4-.1-.1-.3-.2-.5-.4l-.2-.1v2.4l-1.1-.5zm1-2.8.8.4c.5.3.8.4.9.5.1 0 .2 0 .3-.1.1-.1.1-.2.1-.4s0-.4-.1-.5c-.1-.2-.2-.3-.4-.4-.1-.1-.3-.2-.7-.4l-.8-.5-.1 1.4zm4.1-.1 1.9 1.1c.4.2.7.5 1 .7.3.3.6.6.8 1 .2.4.4.8.5 1.2.1.4.2.9.2 1.5 0 .5-.1.9-.1 1.1-.1.3-.3.6-.5.7-.2.1-.4.1-.7.1-.2-.1-.5-.2-.9-.4l-1.9-1.1v-5.9zm1 1.6v3.8l.8.4c.3.2.5.3.6.3.2.1.3 0 .4 0 .1-.1.2-.2.3-.4.1-.2.1-.6.1-1s0-.8-.1-1.1c-.1-.3-.2-.5-.3-.7-.1-.2-.3-.4-.5-.5-.1-.1-.4-.3-.8-.5l-.5-.3zm4 7.1v-5.8l3.7 2.1v1l-2.7-1.6v1.3l2.5 1.4v1l-2.5-1.4v1.6l2.8 1.6v1l-3.8-2.2zm4.7 2.7v-5.8l2.1 1.2c.5.3.9.6 1.2.8.2.2.4.5.6.9.1.3.2.7.2 1 0 .4-.1.7-.3.9-.2.2-.6.1-1 0 .2.3.4.5.5.8.1.3.3.7.6 1.3l.6 1.5-1.2-.7-.7-1.7c-.3-.6-.4-1-.5-1.2-.1-.2-.2-.3-.3-.4-.1-.1-.3-.2-.5-.4l-.2-.1v2.4l-1.1-.5zm1-2.7.8.4c.5.3.8.4.9.5.1 0 .2 0 .3-.1.1-.1.1-.2.1-.4s0-.4-.1-.5c-.1-.2-.2-.3-.4-.4-.1-.1-.3-.2-.7-.4l-.8-.5-.1 1.4zM71.2 50.7c.6 1.5 2.7 2.8 4.3 3.6-.6.6-1.4 1.3-2 2.1 0 0 2.7 3.6 5.2 5.2s2 5 .8 4.7c-1.1-.3-6-2.7-7.2-6.1-.1 1.4-.1 3.3 0 4.9 0 1.6.1 2.9.1 3.2v1.6c0 1.6.5 3.4 1.4 4.9.7 1.2 1.6 2.3 2.6 2.8 2.2 1.3 4.1-.1 4.1-3.1V73l19.6 11.4 11 6.4v1.5c0 3 1.8 6.4 4 7.7 2.2 1.3 4.1-.1 4.1-3.1v-1.5s.3-4.7.1-8c-1.3 1.9-6.1-1.3-7.3-2.3-1.2-1.1-1.7-5.1.8-3.7 2.5 1.4 5.2.9 5.2.9-.6-1.5-1.4-3.2-2-4.4 1.6 1.1 3.7 2.2 4.3 1.4 1.1-1.4-.7-4.8-2.2-6.1-1.1-.9-3.3-.8-4.5-.7l-3.6-8.9c-1.5-3.8-4.2-7.1-7.1-8.8l-2.9-1.7-8.6-5-2.9-1.7c-2.9-1.7-5.6-1.5-7.2.5L78 51.8c-1.2-1.6-3.4-4.3-4.5-4.5-1.6-.5-3.4.8-2.3 3.4zm41.9 22 .2.8-34.8-20.1.3-.6 3.6-4.7c1.3-1.7 3.8-1.9 6.3-.4l14.5 8.4c2.6 1.5 5 4.5 6.3 7.8l3.6 8.8zm10.7-20.6c1.9-1.2 1.6-4.8-.5-8.1s-5.4-4.8-7.2-3.6c-1.9 1.2-1.6 4.8.5 8.1s5.4 4.9 7.2 3.6z" class="station-graphic-st5"></path><path d="m83.6 112.4.6.5c-.1.5-.3.8-.6.8-.3.1-.7 0-1.1-.2-.5-.3-.8-.6-1.1-1-.3-.4-.5-.8-.7-1.3-.1-.5-.2-1-.2-1.4 0-.5.1-.9.3-1.2.2-.3.4-.4.7-.4.3 0 .7.1 1 .3.4.2.8.6 1.1 1 .3.4.5.9.6 1.4l-.6-.2c-.1-.4-.2-.8-.4-1s-.4-.5-.7-.6c-.3-.2-.6-.3-.8-.2-.2.1-.4.2-.5.5-.1.3-.1.5-.1.9s.1.8.2 1.2c.1.4.3.7.5 1 .2.3.5.5.7.6.3.2.6.2.8.1.1-.2.2-.4.3-.8zm1.1 0c0-.8.2-1.3.6-1.6.4-.2.9-.2 1.5.2.4.2.7.5 1.1.9.3.4.6.8.7 1.3.2.5.2 1 .2 1.4 0 .5-.1.9-.3 1.2-.2.3-.4.4-.7.5-.3 0-.7-.1-1-.3-.4-.2-.8-.6-1.1-1-.3-.4-.5-.8-.7-1.3-.3-.4-.3-.9-.3-1.3zm.5.3c0 .6.1 1.1.4 1.6.3.5.6.9 1 1.1.4.2.8.3 1 .1.3-.2.4-.6.4-1.2 0-.4-.1-.8-.2-1.1-.1-.4-.3-.7-.5-1-.2-.3-.5-.5-.8-.7-.4-.2-.7-.3-1-.1-.1.2-.3.6-.3 1.3zm4.2 4.8v-4.9l.8.5 1 4c.1.4.2.7.2.8.1-.1.1-.4.2-.7l1-2.8.8.4v4.9l-.5-.3v-4.1l-1.2 3.4-.5-.3-1.2-4.9v4.2l-.6-.2zm5 2.9v-4.9l2.9 1.7v.6l-2.3-1.3v1.5l2 1.1v.6l-2-1.1v2.2l-.6-.4zm3.4-.4c0-.8.2-1.3.6-1.6.4-.2.9-.2 1.5.2.4.2.7.5 1.1.9.3.4.6.8.7 1.3.2.5.2 1 .2 1.4 0 .5-.1.9-.3 1.2-.2.3-.4.4-.7.5-.3 0-.7-.1-1-.3-.4-.2-.8-.5-1.1-1-.3-.4-.6-.8-.7-1.3-.2-.5-.3-.9-.3-1.3zm.6.3c0 .6.1 1.1.4 1.6.3.5.6.9 1 1.1.4.2.8.3 1 .1.3-.2.4-.6.4-1.2 0-.4-.1-.8-.2-1.1s-.3-.7-.5-1c-.2-.3-.5-.5-.8-.7-.4-.2-.7-.3-1-.1-.2.1-.3.6-.3 1.3zm4.2 4.8v-4.9l1.9 1.1c.4.2.7.4.9.6.2.2.3.4.5.7.1.3.2.6.2.8 0 .3-.1.6-.3.7-.2.1-.5.1-.9-.1.1.2.3.3.3.4.2.3.3.6.5.9l.7 1.8-.7-.4-.6-1.3c-.2-.4-.3-.7-.4-.9-.1-.2-.2-.4-.3-.5l-.3-.3c-.1-.1-.2-.1-.3-.2l-.6-.4v2.2l-.6-.2zm.5-2.4 1.2.7c.3.1.5.2.6.3.1 0 .3 0 .3-.1.1-.1.1-.2.1-.4s-.1-.5-.2-.7c-.1-.2-.4-.4-.7-.6l-1.3-.8v1.6zm4.7 5.4v-4.3l-1.4-.8v-.6l3.4 1.9v.6l-1.4-.8v4.3l-.6-.3zm-14 9.2c-.2-.2-.4-.5-.5-.7-.1-.3-.2-.5-.2-.8 0-.4.1-.6.4-.8.2-.1.6-.1 1 .2.4.2.7.5 1 1 .2.4.4.8.4 1.2 0 .2-.1.4-.2.5-.1.1-.3.2-.5.1.3.3.5.6.6.9.1.3.2.6.2 1 0 .5-.1.8-.4.9-.3.1-.6.1-1.1-.2-.5-.3-.8-.6-1.1-1.1-.3-.5-.4-.9-.4-1.4 0-.3.1-.6.2-.7.1-.2.4-.2.6-.1zm-.3 1.1c0 .2 0 .4.1.6l.3.6c.1.2.3.3.5.4.3.2.5.2.7.1.2-.1.3-.3.3-.6s-.1-.6-.3-.9c-.2-.3-.4-.5-.7-.7-.3-.1-.5-.2-.7-.1-.1.1-.2.3-.2.6zm.2-2.3c0 .3.1.5.2.7.1.2.3.4.6.6.2.1.4.1.5.1.1-.1.2-.2.2-.5 0-.2-.1-.5-.2-.7-.1-.2-.3-.4-.5-.6s-.4-.1-.5-.1c-.2.1-.3.3-.3.5zm2.8 4.2.6.3c0 .4.1.7.3.9.2.3.3.5.6.6.3.2.5.2.7 0 .2-.1.3-.4.3-.8s-.1-.7-.3-1c-.2-.3-.4-.6-.7-.7-.2-.1-.3-.1-.5-.1-.1 0-.3.1-.3.2l-.5-.4.4-2.5 2.3 1.3v.6l-1.8-1.1-.2 1.3c.3-.1.6 0 .9.2.4.2.7.6 1 1.1.3.5.4 1 .4 1.5s-.1.8-.4 1c-.3.3-.7.2-1.2-.1-.4-.2-.8-.6-1-1-.4-.4-.5-.8-.6-1.3zm3.6.8c0-.6.1-1.1.2-1.4.1-.3.3-.5.5-.6.2-.1.5 0 .8.2.2.1.5.3.6.5.2.2.3.5.5.8.1.3.2.6.3 1 .1.3.1.8.1 1.3 0 .6-.1 1.1-.2 1.4-.1.3-.3.5-.5.6-.2.1-.5 0-.8-.2-.4-.3-.8-.6-1-1.2-.4-.6-.5-1.4-.5-2.4zm.6.3c0 .9.1 1.5.3 1.9.2.4.4.7.7.8.3.1.5.1.7-.1.2-.2.3-.7.3-1.6 0-.9-.1-1.5-.3-1.9-.2-.4-.4-.7-.7-.8-.3-.1-.5-.1-.6 0-.3.3-.4.9-.4 1.7zm4.9 5.5v-3.8l.5.3v.5c.1-.1.2-.2.4-.2s.4 0 .6.2c.2.1.4.3.6.5.2.2.3.4.3.7.3-.3.6-.3 1-.1.3.2.6.4.8.8.2.3.3.7.3 1.1v2.6l-.6-.3v-2.4c0-.3 0-.5-.1-.6 0-.1-.1-.3-.2-.4l-.3-.3c-.2-.1-.4-.2-.6-.1-.2.1-.2.3-.2.7v2.2l-.6-.3v-2.5c0-.3 0-.5-.1-.7-.1-.2-.2-.4-.5-.5-.2-.1-.3-.1-.4-.1-.1 0-.2.1-.3.3-.1.1-.1.4-.1.8v2l-.5-.4z" style="fill:#4e93d9"></path><path d="M121.7 47.9c.8-.6.7-2.2-.2-3.6-1-1.4-2.4-2.2-3.2-1.6-.8.6-.7 2.2.2 3.6.9 1.4 2.3 2.2 3.2 1.6zm-4.6.6c.9 1.2 2 2.3 3.2 2.9 1.2.6 2.2.6 3 .2-.8-1.4-1.9-2.6-3.2-3.2-1.2-.6-2.3-.5-3 .1z" style="fill:#799bff"></path><path d="M40.1 215.7s-13.5-5.5-19.4-4.8c-5.9.7-14.9 6.2-15.5 9.2-.6 3 12 11.5 23.4 12.3s19.7-5.1 19.5-8.1c-.2-3-4.7-7.3-8-8.6z" style="opacity:5.000000e-02;fill:#121821;enable-background:new"></path><path d="M26.5 214c-.4.5-.8 1-1.4 1.6-.9.9-1.8 1.5-3.4 2.6-4.7 3-6.5 3.8-8.3 4.2-.6.1-1.3.3-2.2.2-1.1-.1-1.9-.5-2.6-.9.1.4.2.7.3.9.5.3 1.2.6 2.1.8.8.1 1.9.2 3.9-.5.6-.2 1.3-.5 5.1-2.6 0 0 1.5-.9 4.3-2.8.5-.3 1.2-.8 1.7-1.8.2-.3.5-1 .5-1.7z" class="station-graphic-st16"></path><path d="M9.1 216.4c-.3.6-.7 1.8-.7 3.2 0 1.3.3 2.4.6 3 .5.3 1.2.6 2.1.8.8.1 1.9.2 3.9-.5.6-.2 1.3-.5 5.1-2.6 0 0 1.5-.9 4.3-2.8.5-.3 1.2-.8 1.7-1.8.3-.5.7-1.3.4-2.2-.4-1.1-1.7-1.5-1.9-1.5-1.7-.4-3.3.5-3.7.8-2 1.2-5.4 2.5-11.8 3.6zm16.4 6.1c-.3.6-.7 1.8-.8 3.3 0 1.4.3 2.5.6 3.1.5.3 1.2.7 2.2.8.8.1 1.9.2 4-.5.6-.2 1.3-.5 5.2-2.7 0 0 1.6-.9 4.5-2.9.5-.3 1.2-.9 1.8-1.9.3-.5.7-1.4.4-2.3-.4-1.1-1.8-1.5-2-1.6-1.7-.4-3.4.5-3.9.8-1.8 1.4-5.3 2.7-12 3.9z" style="fill:#5baed0"></path><path d="M11.3 154.3c-.5 1.1-1 2.7-1.2 4.7-.2 2.6.2 4.7.6 6.1-.6 4.1-.7 7.5-.8 9.8 0 5.3.5 7.6-.6 11.7-.7 2.7-1.2 2.6-1.9 5.5-1 3.7-.9 6.7-.8 10 .2 4.2.6 10.2 1.6 17.6.9.1 2.2 0 3.7-.4 2.2-.7 3.7-1.9 4.4-2.6-.4-6.7 0-12.3.5-16.4.6-5.2 1.5-9.6 1.7-10.6.7-3.2 1.2-5 2.7-11.4.5-2.2.9-3.9 1.2-5.1.5 5.5 1.2 9.9 1.8 12.9.5 2.7.9 4.5 1 7.4.1 3.6-.4 4.5-.6 8.2-.2 4.8.6 5.8.8 10.6.1 2.6 0 6.2-1 10.8.4.3 2.5 1.9 5.5 1.6 3.4-.4 5.2-3 5.5-3.3-.6-4.8-.8-9-.8-12.3-.1-5.7-.2-11 .7-14.7.1-.5.5-1.9.6-3.9.1-2-.1-3.5-.2-3.9-.6-3.9.5-9.4.9-12.7.5-3.6.8-8.8 0-15.6-8.3-1.4-16.8-2.7-25.3-4z" style="fill:#cbd4e1"></path><path d="M35.5 221.3c-.6-4.8-.8-9-.8-12.3-.1-5.7-.2-11 .7-14.7.1-.5.5-1.9.6-3.9.1-2-.1-3.5-.2-3.9-.6-3.9.5-9.4.9-12.7.5-3.6.8-8.8 0-15.6-8.5-1.3-17-2.6-25.5-3.8-.3.6-.5 1.4-.7 2.2-.3.9-.6 2.2-.6 3.8 0 2 .4 3.6.8 4.6 1.9 1.3 3.5 2.1 4.7 2.6 2.6 1 4.5 1.1 12.5 2.5 2.3.4 2.5.4 2.7.6 2.7 1.7 1.2 5.8 2.4 16.4.3 2.4.5 4.6 0 7.4-.3 2-.7 2.6-1.2 4.5-.8 3.6-.5 6.4-.4 8.4.3 3.5.4 8.7.1 17 2.6-1 3.8-2.8 4-3.1z" style="fill:#94a2b8"></path><path d="M19.5 176.8c-.8 1.8-2.5 5.6-2.8 10.4-.1 1.4 0 2.5-.4 4.1-.5 1.9-1.3 2.7-1.9 4-1 2.2-1 4.2-1 7.1 0 6.7.2 12.9.4 16 1.3-.6 2.2-1.4 2.7-1.9-.4-6.7 0-12.3.5-16.4.6-5.2 1.5-9.6 1.7-10.6.7-3.2 1.2-5 2.7-11.4.5-2 .8-3.6 1.1-4.7v-.2l-.3-1.2c-1.4 2-2.2 3.7-2.7 4.8z" style="fill:#7d8b93"></path><path d="M7.9 158.9c.9 1.9 1.3 2.8.9 3.3-.2.2-.4.3-.7.3-1-.1-1.5-2.4-1.6-2.3-.1 0 .5 2.3.5 5 0 1.5-.2 2-.6 2.3-.7.5-1.8.2-2.4-.2-.8-.5-1.1-1.4-1.8-3.2-.6-1.6-.9-2.4-.9-3.6 0-1.1-.1-2.1.5-2.9.9-1.2 2.8-1.6 5-1.1.2.5.6 1.3 1.1 2.4zm27.9-67.3c-.5-.1-4.4-1-7.6 1.6-2.1 1.7-2.6 4-2.8 4.8-.3 1.5-.1 3.1.4 4.5-1.9-.5-3.6-.8-5.1-1l-.3 5.1 9.3 3.6c.1-1 .3-2.1.4-3.1.9.3 2.4.7 3.5-.1.7-.5.9-1.2 1.3-3.1.8-3.8 1.3-5.9 1.1-9.1.1-1.3-.1-2.4-.2-3.2zm31 37.9c-.4-.3-1-.3-2.4.3-2.5 1-4.4 2.3-4.5 2.2-.1-.1 1.9-1.4 1.6-2.3-.1-.2-.3-.4-.5-.5-.5-.2-1.3.5-2.7 2l-.5.5-.7.7-.2.2-.6.6c.3 2.1.5 4.4 2 4.8.6.1 1.4-.1 2.1-.4.6-.2 1.1-.5 1.5-.7 1.1-.6 1.7-1 3-2.1 1.4-1.3 2.2-1.9 2.3-2.8.4-1 .3-2.1-.4-2.5z" style="fill:#c6a36a"></path><path d="M24.8 102.8c1.7-.2 3.8-1.1 3.8-1.8 0-.2-.2-.2-.4-.5-.5-.8-.3-1.8-.3-2 0-.2.3-1.3 1-1.3.3 0 .6.2.8.4.3.5-.1 1.1.2 1.3.2.1.5 0 .8-.2.7-.5.4-1.4.7-2.8 0-.2.6-2.2 2-3.2.2-.2.8-.5 1.5-.8.3-.1.6-.2.8-.3-.2-.9-.9-2.8-2.7-4.2-3.2-2.4-7.2-1.3-8.2-1-1.2.3-3.4 1-4.9 3-2.3 3.2-1.4 7.2-1 9 .4 1.8 1.1 3.1 1.6 4 2 .6 3.5.5 4.3.4z" style="fill:#1d0803"></path><path d="M60.6 137.5c-.8.3-1.6.5-2.1.4-1-1-1.8-3.1-2-4.8.1-.2.3-.4.6-.6 0-.1.1-.1.2-.2l.7-.7c.7.5 1.6 1.2 2.2 2.5.3 1.1.4 2.5.4 3.4zm-53.8 19c-2.1-.5-4.1-.1-5 1.1-.3.4-.4.8-.4 1.2.7.3 1.8.8 3.2.6 1.4-.1 2.4-.7 3.1-1.2-.5-.7-.8-1.3-.9-1.7z" style="opacity:.12;enable-background:new"></path><path d="M43.5 220.1c-.4.5-.9 1.1-1.5 1.7-1 1-1.8 1.6-3.6 2.7-4.9 3.1-6.8 3.9-8.5 4.4-.6.1-1.3.3-2.3.2-1.1-.1-2-.5-2.7-.9.1.4.2.7.3 1 .5.3 1.2.7 2.2.8.8.1 1.9.2 4-.5.6-.2 1.3-.5 5.2-2.7 0 0 1.6-.9 4.5-2.9.5-.3 1.2-.9 1.8-1.9.4-.5.7-1.2.6-1.9z" class="station-graphic-st16"></path><path d="M1.4 155.9c0 .8-.1 1.5-.2 2.3.7.3 2.2.7 3.9.4 1.2-.2 2.1-.6 2.7-.9-.2-1.1-.3-2.2-.5-3.4-1.9.5-3.9 1.1-5.9 1.6zm54.7-23.2c.4-.2.7-.5 1.1-.7.5.4 1.1 1 1.6 1.9 1 1.5 1.3 2.9 1.4 3.7-.4.2-.8.4-1.3.6-.9-1.8-1.8-3.7-2.8-5.5zM19.9 106c.2-.2.4-.4.6-.7 1.5.5 3.1 1 4.7 1.6 1.7.6 3.4 1.2 4.9 1.8 0 .6 0 1.3-.1 1.9-3.3-1.5-6.7-3-10.1-4.6z" style="fill:#c8f0fc"></path><path d="M58.7 134.9c-.8-1.4-1.7-2.3-2.4-2.8-1.8 1-3.9 1.9-6.3 2.8-2.1.7-4 1.3-5.7 1.6-.9-5.5-1.9-10.1-2.7-13.5-.4-1.7-.8-3.1-1.1-4.2-.2-.9-.5-1.5-.8-2-1.6-2.6-4.4-3.4-6.6-4.1-.2-.1-.5-.2-.8-.2-.6-.9-1.3-1.9-1.9-2.8-2-.9-4.2-1.8-6.5-2.7-1.5-.5-2.9-1-4.3-1.4-.8.5-1.6 1-2.5 1.6 0 0 .1 0 .1.1-1.2 0-3 .1-4.5 1-2.6.7-4.2 3.1-5.7 5.3-2 2.9-2.9 5.6-4.2 10.7C2 127.6 1 131.9 0 137c-.1.6-.1 1.1-.1 1.7.3 2.7.5 5.6.7 8.6.2 3.4.3 6.7.3 9.8.5.3 1.3.7 2.4.9 2.5.3 4.4-1.1 4.8-1.5.1-6.1.2-12.1.2-18.2 0-.5.1-.9.4-1.3 1.1-1.8 1.9-3.3 2.5-4.7 0 .2.1.4.1.6.4 1.6.8 2.4 1.1 3.4.6 1.8.6 3.3.7 4.9.1 3.4-.9 6.1-1.3 7.4-1 2.9-2 7.2-2.1 13.5.5.7 1.5 1.6 2.9 2.4 1.4.8 2.7 1.1 3.5 1.2.5-2.3.9-4.5 1.3-6.8l1.5 7.8c1.4.4 3 .8 4.7 1 6 .9 11.1-.1 14.6-1.2-.5-3-1-6.6-1.6-10.7-.4-2.6-.8-5.1-.7-8.6 0-.6.1-1.7.2-3.1.1-.5.1-.9.2-1.3 1 1.9 2.3 3.3 4 3.8.8.2 2.2.4 12.2-4.4 3-1.5 5.5-2.7 7.3-3.7 0-.9-.3-2.2-1.1-3.6z" class="station-graphic-st25"></path><path d="M38.2 166.4c-.7-4.7-1.2-7.9-1.6-10.6-.3-2.1-.6-3.8-.7-6.3 0-.7-.1-2.9.2-5.6.2-1.5.2-2.3.4-2.9.6-2.1-.4.7-.1-.8 0-.1-.1.5 0 0s-1.2-2.6-1.1-3.1c-1.4-3.3-2.1-6.1-3.3-9.2-.2 2.4-.3 2.3-.6 6.8-.5 8.5-.3 8.3-.6 11.4-.3 4.2-.7 5.7-1.2 9.4-.2 1.8-.4 3.1-.6 4.9-.2 2-.4 4.4-.6 7.3 1.3 0 2.8-.1 4.3-.3 2.2-.1 4-.5 5.5-1zm-27-34.2c-.7-2.3-.7-5.3-.9-5.9-1.7 3.1-3.5 6.2-5.2 9.3-.3.5-.4 1-.3 1.6.1.8.1 1.6.2 2.4.5 6.2.9 12.2 1 18 1.2-.4 2-1 2.2-1.2.1-6.1.2-12.1.2-18.2 0-.5.1-.9.4-1.3 1.4-2.4 1.7-2.9 2.4-4.7zm24.6 6.4c-1.2-3.3-2.5-6.9-3.7-10.8 0 .1 0 .2-.1.3.3 1.5.6 3 1 4.5 1.8 7 3.3 12.9 7.4 14.1.8.2 2.2.4 12.2-4.4 3-1.5 5.5-2.7 7.3-3.7-.1-.6-.3-1.6-.8-2.6-3.2 1.8-9.6 5.2-15.3 7.9-1 .5-2.7 1.2-4.3.6-1.8-.5-2.6-3.4-3.7-5.9z" style="fill:#0a2348"></path><ellipse cx="345.2" cy="179.2" class="station-graphic-st25" rx="167.7" ry="1.6"></ellipse><path d="m446.6 74.2-19.9 9.9c-6.9 3.4-14.5 5.2-22.1 5.2h-9.7v-3h9.7c7.2 0 14.3-1.7 20.8-4.9l19.9-9.9 1.3 2.7z" style="fill:#154a99;stroke:#fff;stroke-width:.5;stroke-opacity:.4"></path><linearGradient id="station-graphic-lg-3" x1="429.657" x2="496.926" y1="291.454" y2="510.285" gradientTransform="matrix(1 0 0 -1 0 476)" gradientUnits="userSpaceOnUse"><stop offset="0" style="stop-color:#33135d"></stop><stop offset=".116" style="stop-color:#6e28c3"></stop><stop offset=".431" style="stop-color:#2070e8"></stop><stop offset=".668" style="stop-color:#63d9ea"></stop><stop offset="1" style="stop-color:#fde896"></stop></linearGradient><path d="M486.6 178.6h-1.7V13.4c0-4.3-3.5-7.8-7.8-7.8h-40c-4.3 0-7.8 3.5-7.8 7.8v165.3h-1.7V13.4c0-5.3 4.3-9.5 9.5-9.5h40c5.2 0 9.5 4.3 9.5 9.5v165.2z" style="fill:url(#station-graphic-lg-3)"></path><linearGradient id="station-graphic-lg-4" x1="517.577" x2="436.077" y1="518.515" y2="332.515" gradientTransform="matrix(1 0 0 -1 0 476)" gradientUnits="userSpaceOnUse"><stop offset="0" style="stop-color:#16c7df"></stop><stop offset="1" style="stop-color:#16335f"></stop></linearGradient><path d="M437.1 4.7h40.2c4.8 0 8.7 3.9 8.7 8.7v165.4h-57.6V13.4c0-4.8 3.9-8.7 8.7-8.7z" style="fill:url(#station-graphic-lg-4)"></path><linearGradient id="station-graphic-lg-5" x1="436.443" x2="480.443" y1="414.147" y2="364.147" gradientTransform="matrix(1 0 0 -1 0 476)" gradientUnits="userSpaceOnUse"><stop offset="0" style="stop-color:#9be7f1"></stop><stop offset=".492" style="stop-color:#2070e8"></stop><stop offset="1" style="stop-color:#c193fe"></stop></linearGradient><path d="M466.2 98.9h-17.9c-2.4 0-4.4-2-4.4-4.4v-18c0-2.4 2-4.4 4.4-4.4h17.9c2.4 0 4.4 2 4.4 4.4v17.9c0 2.5-2 4.5-4.4 4.5zm-17.9-26c-2 0-3.6 1.6-3.6 3.6v17.9c0 2 1.6 3.6 3.6 3.6h17.9c2 0 3.6-1.6 3.6-3.6V76.5c0-2-1.6-3.6-3.6-3.6h-17.9z" style="fill:url(#station-graphic-lg-5)"></path><path d="m456.6 84.6 3.8-7.6c0-.1-.1-.2-.1-.1l-9.1 11.2L457 87l-3.1 6.9c-.1.1.1.3.2.1l7.8-10.5-5.3 1.1z" style="fill:#c9f2f8"></path><ellipse cx="288.9" cy="118.5" rx="56.4" ry="25.9" style="fill:#f8fdfe"></ellipse><linearGradient id="station-graphic-lg-6" x1="287.169" x2="295.611" y1="471.91" y2="200.419" gradientTransform="matrix(1 0 0 -1 0 476)" gradientUnits="userSpaceOnUse"><stop offset="0" style="stop-color:#1199ac"></stop><stop offset=".613" style="stop-color:#154a99"></stop><stop offset="1" style="stop-color:#16335f"></stop></linearGradient><path d="M412.2 61.7c-.1-3.5-3.1-6.3-6.7-6.2l-14.2.4c-3.2.1-5.4 2.1-5.8 5.2-.1.7-.2 1.4-.4 2.1h-1.3c-5.8-10.7-14.1-24.8-22-32.9 0 0-7.5-9.7-21.5-12.5h-.1c-12.2-2.6-31.4-3.9-50.8-3.8-19.4-.1-39.3.5-51.4 3.1h-.1C224 20 217 28.5 217 28.5c-7.9 8.1-15.8 20.9-21.6 31.5l-1.8 3.5c-.2-.8-.4-1.6-.5-2.5-.4-3.1-2.9-5.5-6.1-5.6l-14.2-.4c-3.5-.1-6.6 2.6-6.7 6.2l-.2 6.9c-.1 3.5 2.7 6.6 6.2 6.7l15.1 1.7.2-.3c-.1.3-.2.5-.3.7-5 5.7-8 12.4-8.9 17.7-1.6 5.5-2.5 12.6-2.5 21.6 0 13 3.6 30.6 4.4 39.2v12.8c0 6.4 5.2 11.6 11.6 11.6h15.8c6.4 0 11.6-5.2 11.6-11.6v-9.5c16.5-1.5 43.4-2 70.5-2.1 27.1 0 50.9.6 67.4 2.1v9.5c0 6.4 8.3 11.6 14.7 11.6h15.8c6.4 0 11.2-4.8 11.2-11.2V156c.9-8.6 4.4-26.3 4.4-39.2 0-20.1-7.5-34.2-11.5-39.3-.1-.1-.1-.3-.2-.4l14.8-1.7c3.5-.1 6.3-3.1 6.2-6.7l-.2-7zm-199.8 67.6c-7.1-.7-12.9-6.5-13.6-13.6-1-9.6 7.1-17.6 16.7-16.7 7.1.7 12.9 6.5 13.6 13.6 1 9.6-7.1 17.6-16.7 16.7zm151 0c-7.1-.7-12.9-6.5-13.6-13.6-1-9.6 7.1-17.6 16.7-16.7 7.1.7 12.9 6.5 13.6 13.6 1 9.6-7 17.6-16.7 16.7zm-138-78.1v12.1c0 1.4.5 2.6 1.3 3.7-7.2.7-14.2 1.7-20.6 3 3.5-8.8 10.8-23 19.4-32 1.5-1.5 7.5-6.8 16.4-8.4 4.4-.7 20-3 44.2-3h6.6c24.3 0 39.9 2.3 44.2 3 8.9 1.6 14.9 6.9 16.4 8.4 8.7 8.9 16 23.1 19.4 32-13.8-2.9-29.5-4.1-46.3-4.5-1.9 0-7-.2-11.7-.2h-49.2c.2-.7.4-1.4.4-2.1v-12c0-4.1-4.1-7.4-9.2-7.4h-22.3c-4.9 0-9 3.3-9 7.4zm71.8 89.4c-2.6.5-5.3.8-7.9.9-2.6-.1-5.2-.4-7.9-.9-19-3.6-33.7-16.9-40.2-34 9.2 10.4 27.5 15.8 48.1 16.1 20.6-.2 38.9-5.6 48.1-16.1-6.5 17.1-21.2 30.4-40.2 34z" style="fill:url(#station-graphic-lg-6)"></path><linearGradient id="station-graphic-lg-7" x1="273.8" x2="309.3" y1="508.844" y2="259.344" gradientTransform="matrix(1 0 0 -1 0 476)" gradientUnits="userSpaceOnUse"><stop offset="0" style="stop-color:#9be7f1"></stop><stop offset=".411" style="stop-color:#63d9ea"></stop><stop offset=".638" style="stop-color:#2070e8"></stop><stop offset=".842" style="stop-color:#16335f"></stop></linearGradient><path d="M410.6 61.5c-.1-3.5-3.1-6.2-6.6-6.1l-14.1.4c-3.2.1-5.7 2.5-6.1 5.5-.1.7-.2 1.4-.4 2l-1.6-3.1c-5.8-10.5-13.6-23.1-21.5-31 0 0-6.9-8.4-20.9-11.2h-.1c-12.1-2.5-31.9-3.2-51.2-3.1-19.4-.1-39.1.5-51.2 3.1h-.1c-13.9 2.8-20.9 11.2-20.9 11.2-7.9 7.9-15.8 20.5-21.5 31l-1.8 3.5c-.2-.8-.4-1.6-.5-2.4-.4-3-2.9-5.4-6.1-5.5l-14.1-.4c-3.5-.1-6.5 2.6-6.6 6.1l-.2 6.8c-.1 3.5 2.6 6.4 6.2 6.5l15 1.7.2-.3c-.1.3-.2.5-.3.7-5 5.6-8 12.2-8.9 17.4-1.6 5.5-2.5 12.4-2.5 21.3 0 12.8 3.5 30.1 4.4 38.6v12.6c0 6.3 5.2 11.4 11.6 11.4h15.7c6.4 0 11.6-5.1 11.6-11.4v-9.4c16.4-1.5 43.3-2 70.2-2 27 0 53.8.6 70.2 2v9.4c0 6.3 5.2 11.4 11.6 11.4h15.7c6.4 0 11.6-5.1 11.6-11.4v-12.6c.8-8.5 4.4-25.9 4.4-38.6C401.4 95.9 394 82 390 77c-.1-.1-.1-.3-.2-.4l14.8-1.7c3.5-.1 6.3-3.1 6.2-6.5l-.2-6.9zm-199.4 66.9c-7.1-.7-12.8-6.4-13.5-13.3-1-9.5 7-17.3 16.6-16.4 7.1.7 12.8 6.4 13.5 13.3 1 9.5-7 17.4-16.6 16.4zm150.4 0c-7.1-.7-12.8-6.4-13.5-13.3-1-9.5 7-17.3 16.6-16.4 7.1.7 12.8 6.4 13.5 13.3 1 9.5-7 17.4-16.6 16.4zM224.2 51.6v11.7c0 1.4.5 2.6 1.3 3.7-7.2.7-14.1 1.8-20.6 3.2 3.5-8.7 10.7-22.7 19.4-31.4 1.5-1.5 7.5-6.7 16.4-8.3 4.3-.7 19.9-2.9 44-2.9h6.6c24.2 0 39.7 2.3 44 2.9 8.9 1.5 14.9 6.8 16.4 8.3 8.6 8.8 15.9 22.7 19.4 31.4-13.7-2.9-29.3-4-46.1-4.4-1.9 0-6.9-.1-11.6-.2h-46l-2.9-.2c.2-.6.4-1.3.4-2v-12c0-4-4.1-7.3-9.2-7.3l-22.3.2c-5.1 0-9.2 3.2-9.2 7.3zm71.5 88c-2.6.5-5.3.8-7.9.9-2.6-.1-5.2-.4-7.9-.9-18.9-3.5-33.6-16.6-40-33.4 9.2 10.3 27.4 15.6 47.9 15.8 20.5-.2 38.7-5.5 47.9-15.8-6.5 16.8-21.1 29.9-40 33.4z" style="fill:url(#station-graphic-lg-7)"></path><path d="M473.8 16.6h-33.1c-.5 0-1 .4-1 1v24.8c0 .5.4 1 1 1h33.1c.5 0 1-.4 1-1V17.6c0-.6-.5-1-1-1zM213.4 98.8c8 0 14.5 6.7 14.5 15s-6.5 15-14.5 15-14.5-6.7-14.5-15 6.5-15 14.5-15zm151 0c8 0 14.5 6.7 14.5 15s-6.5 15-14.5 15-14.5-6.7-14.5-15 6.5-15 14.5-15z" style="fill:#def7fb"></path><path d="m344.2 44.2-22.2-1c-5.1-.2-9.3 2.9-9.5 6.9L312 62c0 .8-.1 1.5.3 2.3 4.9-5.4 12.3-8.7 20.3-8.3 5.8.3 15.1 4.1 19.5 9.9.2-.6.4-1.3.5-2.1l.5-11.9c.2-4-3.8-7.5-8.9-7.7z" style="fill:#63d9ea"></path><linearGradient id="station-graphic-lg-8" x1="314.637" x2="343.137" y1="434.239" y2="410.739" gradientTransform="matrix(1 0 0 -1 0 476)" gradientUnits="userSpaceOnUse"><stop offset="0" style="stop-color:#fff"></stop><stop offset=".44" style="stop-color:#fff;stop-opacity:.17"></stop><stop offset="1" style="stop-color:#fff;stop-opacity:0"></stop></linearGradient><path d="m311.9 64.3.6-14.2c.2-4 4.4-7.1 9.5-6.9l22.2 1h0c5.1.2 9 3.7 8.8 7.7l-.5 11.9c0 .8-.3 1.5-.5 2.1" style="fill:none;stroke:url(#station-graphic-lg-8);stroke-width:.5;stroke-linecap:round"></path><linearGradient id="station-graphic-lg-9" x1="226.468" x2="256.163" y1="432.915" y2="410.944" gradientTransform="matrix(1 0 0 -1 0 476)" gradientUnits="userSpaceOnUse"><stop offset="0" style="stop-color:#fff"></stop><stop offset=".44" style="stop-color:#fff;stop-opacity:.17"></stop><stop offset="1" style="stop-color:#fff;stop-opacity:0"></stop></linearGradient><path d="M224.3 64.3V52.2c0-4 4-7.3 9.1-7.4l22.2-.2h0c5.1 0 9.2 3.2 9.2 7.2l.1 11.9c0 .8-.2 1.5-.4 2.1" style="fill:none;stroke:url(#station-graphic-lg-9);stroke-width:.5;stroke-linecap:round"></path></svg>